<svg xmlns="http://www.w3.org/2000/svg" viewBox="0 0 24 24"><defs><style>.cls-1{fill:none;}</style></defs><title>ic_settings</title><g id="Space"><rect class="cls-1" width="24" height="24"/></g><g id="Lager_6"><g id="Ikoner"><path d="M19.432,12.98a6.919,6.919,0,0,0,0-1.96l2.11-1.65a.506.506,0,0,0,.12-.64l-2-3.46a.5.5,0,0,0-.61-.22l-2.49,1a7.3,7.3,0,0,0-1.69-.98l-.38-2.65A.487.487,0,0,0,14,2H10a.487.487,0,0,0-.49.42l-.38,2.65a7.662,7.662,0,0,0-1.69.98l-2.49-1a.487.487,0,0,0-.61.22l-2,3.46a.493.493,0,0,0,.12.64l2.11,1.65a6.847,6.847,0,0,0,0,1.96l-2.11,1.65a.5.5,0,0,0-.12.64l2,3.46a.5.5,0,0,0,.61.22l2.49-1a7.312,7.312,0,0,0,1.69.98l.38,2.65A.488.488,0,0,0,10,22h4a.488.488,0,0,0,.49-.42l.38-2.65a7.748,7.748,0,0,0,1.69-.98l2.49,1a.488.488,0,0,0,.61-.22l2-3.46a.506.506,0,0,0-.12-.64ZM12,15.5A3.5,3.5,0,1,1,15.5,12h0A3.5,3.5,0,0,1,12,15.5Z"/></g></g></svg>